<svg viewBox="0 0 20 20" fill="none" xmlns="http://www.w3.org/2000/svg">
  <g clip-path="url(#clip0)">
    <path
      fill="currentColor"
      fill-rule="evenodd"
      clip-rule="evenodd"
      d="M16.875 11.25a.625.625 0 0 0-.625-.625H3.75a.625.625 0 0 0-.625.625v6.875c0 .4975.1981.975.55 1.325.3519.3506.8294.549 1.325.549h10c.4975 0 .975-.1981 1.325-.55.3519-.3506.55-.8281.55-1.325V11.25Zm0-9.375A1.25 1.25 0 0 0 15 0H5A1.25 1.25 0 0 0 3.125 1.875V7.5c0 .4975.1975.9744.5494 1.3256.174.174.3807.3122.6082.4065.2276.0942.4715.1426.7174.1426h10c.4975 0 .9744-.1975 1.3256-.5494.174-.174.3122-.3807.4065-.6082.0942-.2275.1426-.4714.1426-.7175V1.875ZM7.5 2.5a1.875 1.875 0 1 0 0 3.75 1.875 1.875 0 0 0 0-3.75Zm5 0a1.875 1.875 0 1 0 0 3.75 1.875 1.875 0 0 0 0-3.75ZM18.018 10.625H18.125c.4975 0 .9744.1975 1.3256.5494.3519.3519.5494.8288.5494 1.3256v3.75c0 .4975-.1975.9744-.5494 1.3256a1.25 1.25 0 0 1-1.3256.5494V11.25c0-.2194-.0375-.4294-.1069-.625ZM1.982 10.625H1.875c-.4975 0-.9744.1975-1.3256.5494A1.25 1.25 0 0 0 0 12.5v3.75c0 .4975.1975.9744.5494 1.3256.174.174.3807.3122.6082.4065.2275.0942.4714.1426.7175.1426V11.25c0-.2194.0375-.4294.1069-.625Z"
    />
  </g>
  <defs>
    <clipPath id="clip0">
      <rect width="20" height="20" fill="none"/>
    </clipPath>
  </defs>
</svg>